<?xml version="1.0" encoding="UTF-8" standalone="no"?>
<!-- Created with Inkscape (http://www.inkscape.org/) -->

<svg
   xmlns:dc="http://purl.org/dc/elements/1.1/"
   xmlns:cc="http://creativecommons.org/ns#"
   xmlns:rdf="http://www.w3.org/1999/02/22-rdf-syntax-ns#"
   xmlns:svg="http://www.w3.org/2000/svg"
   xmlns="http://www.w3.org/2000/svg"
   xmlns:xlink="http://www.w3.org/1999/xlink"
   xmlns:sodipodi="http://sodipodi.sourceforge.net/DTD/sodipodi-0.dtd"
   xmlns:inkscape="http://www.inkscape.org/namespaces/inkscape"
   width="990"
   height="765"
   id="svg3831"
   version="1.1"
   inkscape:version="0.48.4 r9939"
   sodipodi:docname="New document 3">
  <defs
     id="defs3833">
    <linearGradient
       inkscape:collect="always"
       xlink:href="#linearGradient5411"
       id="linearGradient3693"
       gradientUnits="userSpaceOnUse"
       gradientTransform="matrix(1.6559253,0.95604895,-0.95604895,1.6559253,690.77981,-759.5338)"
       x1="404.14246"
       y1="169.08061"
       x2="372.28125"
       y2="151.11687" />
    <linearGradient
       id="linearGradient5411">
      <stop
         style="stop-color:#0b5d00;stop-opacity:1;"
         offset="0"
         id="stop5413" />
      <stop
         id="stop5419"
         offset="0.5"
         style="stop-color:#2e9300;stop-opacity:1;" />
      <stop
         style="stop-color:#7add36;stop-opacity:1;"
         offset="1"
         id="stop5415" />
    </linearGradient>
    <linearGradient
       inkscape:collect="always"
       xlink:href="#linearGradient5782"
       id="linearGradient3679"
       gradientUnits="userSpaceOnUse"
       gradientTransform="matrix(0.92689959,0,0,0.92689959,757.54337,-227.52643)"
       x1="456.65509"
       y1="168.64308"
       x2="456.65509"
       y2="141.64235" />
    <linearGradient
       id="linearGradient5782">
      <stop
         style="stop-color:#0e0e0e;stop-opacity:1;"
         offset="0"
         id="stop5784" />
      <stop
         id="stop5790"
         offset="0.5"
         style="stop-color:#41464a;stop-opacity:1;" />
      <stop
         style="stop-color:#5e666d;stop-opacity:1;"
         offset="1"
         id="stop5786" />
    </linearGradient>
    <linearGradient
       inkscape:collect="always"
       xlink:href="#linearGradient5782"
       id="linearGradient3681"
       gradientUnits="userSpaceOnUse"
       gradientTransform="matrix(0.92689959,0,0,0.92689959,755.77561,-227.52643)"
       x1="456.65509"
       y1="168.64308"
       x2="456.65509"
       y2="141.64235" />
    <linearGradient
       id="linearGradient3762">
      <stop
         style="stop-color:#0e0e0e;stop-opacity:1;"
         offset="0"
         id="stop3764" />
      <stop
         id="stop3766"
         offset="0.5"
         style="stop-color:#41464a;stop-opacity:1;" />
      <stop
         style="stop-color:#5e666d;stop-opacity:1;"
         offset="1"
         id="stop3768" />
    </linearGradient>
    <linearGradient
       inkscape:collect="always"
       xlink:href="#linearGradient5782"
       id="linearGradient3683"
       gradientUnits="userSpaceOnUse"
       gradientTransform="matrix(0.92689959,0,0,0.92689959,755.77561,-227.52643)"
       x1="456.65509"
       y1="168.64308"
       x2="456.65509"
       y2="141.64235" />
    <linearGradient
       id="linearGradient3771">
      <stop
         style="stop-color:#0e0e0e;stop-opacity:1;"
         offset="0"
         id="stop3773" />
      <stop
         id="stop3775"
         offset="0.5"
         style="stop-color:#41464a;stop-opacity:1;" />
      <stop
         style="stop-color:#5e666d;stop-opacity:1;"
         offset="1"
         id="stop3777" />
    </linearGradient>
    <linearGradient
       inkscape:collect="always"
       xlink:href="#linearGradient5782"
       id="linearGradient3685"
       gradientUnits="userSpaceOnUse"
       gradientTransform="matrix(0.92689959,0,0,0.92689959,755.77561,-227.52643)"
       x1="456.65509"
       y1="168.64308"
       x2="456.65509"
       y2="141.64235" />
    <linearGradient
       id="linearGradient3780">
      <stop
         style="stop-color:#0e0e0e;stop-opacity:1;"
         offset="0"
         id="stop3782" />
      <stop
         id="stop3784"
         offset="0.5"
         style="stop-color:#41464a;stop-opacity:1;" />
      <stop
         style="stop-color:#5e666d;stop-opacity:1;"
         offset="1"
         id="stop3786" />
    </linearGradient>
    <linearGradient
       inkscape:collect="always"
       xlink:href="#linearGradient5782"
       id="linearGradient3687"
       gradientUnits="userSpaceOnUse"
       gradientTransform="matrix(0.92689959,0,0,0.92689959,755.77561,-227.52643)"
       x1="456.65509"
       y1="168.64308"
       x2="456.65509"
       y2="141.64235" />
    <linearGradient
       id="linearGradient3789">
      <stop
         style="stop-color:#0e0e0e;stop-opacity:1;"
         offset="0"
         id="stop3791" />
      <stop
         id="stop3793"
         offset="0.5"
         style="stop-color:#41464a;stop-opacity:1;" />
      <stop
         style="stop-color:#5e666d;stop-opacity:1;"
         offset="1"
         id="stop3795" />
    </linearGradient>
    <linearGradient
       inkscape:collect="always"
       xlink:href="#linearGradient5782"
       id="linearGradient3689"
       gradientUnits="userSpaceOnUse"
       gradientTransform="matrix(0.92689959,0,0,0.92689959,755.61139,-227.52643)"
       x1="456.65509"
       y1="168.64308"
       x2="456.65509"
       y2="141.64235" />
    <linearGradient
       id="linearGradient3798">
      <stop
         style="stop-color:#0e0e0e;stop-opacity:1;"
         offset="0"
         id="stop3800" />
      <stop
         id="stop3802"
         offset="0.5"
         style="stop-color:#41464a;stop-opacity:1;" />
      <stop
         style="stop-color:#5e666d;stop-opacity:1;"
         offset="1"
         id="stop3804" />
    </linearGradient>
    <linearGradient
       inkscape:collect="always"
       xlink:href="#linearGradient5411"
       id="linearGradient3691"
       gradientUnits="userSpaceOnUse"
       gradientTransform="matrix(0.47208482,0.2725583,-0.2725583,0.47208482,1087.0492,-258.25632)"
       x1="404.14246"
       y1="169.08061"
       x2="372.28125"
       y2="151.11687" />
    <linearGradient
       id="linearGradient3807">
      <stop
         style="stop-color:#0b5d00;stop-opacity:1;"
         offset="0"
         id="stop3809" />
      <stop
         id="stop3811"
         offset="0.5"
         style="stop-color:#2e9300;stop-opacity:1;" />
      <stop
         style="stop-color:#7add36;stop-opacity:1;"
         offset="1"
         id="stop3813" />
    </linearGradient>
    <linearGradient
       inkscape:collect="always"
       xlink:href="#linearGradient5782"
       id="linearGradient3974"
       gradientUnits="userSpaceOnUse"
       gradientTransform="matrix(0.92689959,0,0,0.92689959,757.54337,-227.52643)"
       x1="456.65509"
       y1="168.64308"
       x2="456.65509"
       y2="141.64235" />
    <linearGradient
       inkscape:collect="always"
       xlink:href="#linearGradient5782"
       id="linearGradient3976"
       gradientUnits="userSpaceOnUse"
       gradientTransform="matrix(0.92689959,0,0,0.92689959,755.77561,-227.52643)"
       x1="456.65509"
       y1="168.64308"
       x2="456.65509"
       y2="141.64235" />
    <linearGradient
       inkscape:collect="always"
       xlink:href="#linearGradient5782"
       id="linearGradient3978"
       gradientUnits="userSpaceOnUse"
       gradientTransform="matrix(0.92689959,0,0,0.92689959,755.77561,-227.52643)"
       x1="456.65509"
       y1="168.64308"
       x2="456.65509"
       y2="141.64235" />
    <linearGradient
       inkscape:collect="always"
       xlink:href="#linearGradient5782"
       id="linearGradient3980"
       gradientUnits="userSpaceOnUse"
       gradientTransform="matrix(0.92689959,0,0,0.92689959,755.77561,-227.52643)"
       x1="456.65509"
       y1="168.64308"
       x2="456.65509"
       y2="141.64235" />
    <linearGradient
       inkscape:collect="always"
       xlink:href="#linearGradient5782"
       id="linearGradient3982"
       gradientUnits="userSpaceOnUse"
       gradientTransform="matrix(0.92689959,0,0,0.92689959,755.77561,-227.52643)"
       x1="456.65509"
       y1="168.64308"
       x2="456.65509"
       y2="141.64235" />
    <linearGradient
       inkscape:collect="always"
       xlink:href="#linearGradient5782"
       id="linearGradient3984"
       gradientUnits="userSpaceOnUse"
       gradientTransform="matrix(0.92689959,0,0,0.92689959,755.61139,-227.52643)"
       x1="456.65509"
       y1="168.64308"
       x2="456.65509"
       y2="141.64235" />
    <linearGradient
       inkscape:collect="always"
       xlink:href="#linearGradient5411"
       id="linearGradient3986"
       gradientUnits="userSpaceOnUse"
       gradientTransform="matrix(0.47208482,0.2725583,-0.2725583,0.47208482,1087.0492,-258.25632)"
       x1="404.14246"
       y1="169.08061"
       x2="372.28125"
       y2="151.11687" />
    <linearGradient
       inkscape:collect="always"
       xlink:href="#linearGradient5411"
       id="linearGradient3988"
       gradientUnits="userSpaceOnUse"
       gradientTransform="matrix(1.6559253,0.95604895,-0.95604895,1.6559253,690.77981,-759.5338)"
       x1="404.14246"
       y1="169.08061"
       x2="372.28125"
       y2="151.11687" />
  </defs>
  <sodipodi:namedview
     id="base"
     pagecolor="#ffffff"
     bordercolor="#666666"
     borderopacity="1.0"
     inkscape:pageopacity="0.0"
     inkscape:pageshadow="2"
     inkscape:zoom="0.35"
     inkscape:cx="33.571429"
     inkscape:cy="520"
     inkscape:document-units="px"
     inkscape:current-layer="layer1"
     showgrid="false"
     inkscape:window-width="1366"
     inkscape:window-height="705"
     inkscape:window-x="-8"
     inkscape:window-y="-8"
     inkscape:window-maximized="1" />
  <metadata
     id="metadata3836">
    <rdf:RDF>
      <cc:Work
         rdf:about="">
        <dc:format>image/svg+xml</dc:format>
        <dc:type
           rdf:resource="http://purl.org/dc/dcmitype/StillImage" />
        <dc:title></dc:title>
      </cc:Work>
    </rdf:RDF>
  </metadata>
  <g
     inkscape:label="Layer 1"
     inkscape:groupmode="layer"
     id="layer1"
     transform="translate(0,-287.36218)">
    <g
       id="g3956"
       transform="matrix(1.1848821,0,0,1.1848821,-94.634238,-124.30775)">
      <g
         transform="matrix(4.3124786,0,0,4.3124786,-4652.8054,1174.2844)"
         id="g3617">
        <path
           d="m 1136.9737,-68.2053 5.3074,0 0,-8.47078 c 0.2475,0.0352 0.5258,0.0615 0.8348,0.0791 0.309,0.0176 0.64,0.0264 0.9929,0.0264 1.5905,0.004 3.0404,-0.19698 4.3496,-0.60192 1.3093,-0.40493 2.4253,-1.03614 3.3479,-1.89363 0.7059,-0.67367 1.2449,-1.48794 1.6169,-2.44282 0.3719,-0.95485 0.5594,-2.01516 0.5623,-3.18093 -0.011,-1.16867 -0.2438,-2.22313 -0.6985,-3.16337 -0.4548,-0.9402 -1.0655,-1.71346 -1.8321,-2.3198 -0.7872,-0.63265 -1.7787,-1.10715 -2.9745,-1.42351 -1.1958,-0.31631 -2.6178,-0.47448 -4.2661,-0.47451 -1.6286,0.003 -3.0374,0.0498 -4.2266,0.1406 -1.1892,0.0908 -2.1939,0.20798 -3.014,0.35148 z m 5.3074,-19.61285 c 0.1933,-0.0549 0.4745,-0.10323 0.8436,-0.14499 0.369,-0.0417 0.826,-0.0637 1.3708,-0.0659 1.3429,0.009 2.3739,0.31636 3.093,0.92265 0.7191,0.60633 1.0823,1.45868 1.0896,2.55705 -0.014,1.22216 -0.4254,2.1697 -1.2346,2.84263 -0.8091,0.67296 -1.9324,1.0142 -3.3698,1.0237 -0.3845,7.5e-4 -0.7228,-0.01 -1.0149,-0.0307 -0.2922,-0.0212 -0.5514,-0.0578 -0.7777,-0.10984 z"
           style="font-size:35.14893341px;font-style:normal;font-variant:normal;font-weight:bold;font-stretch:normal;line-height:125%;letter-spacing:-1.8804692px;word-spacing:0px;fill:url(#linearGradient3974);fill-opacity:1;stroke:none;font-family:Myriad Pro;-inkscape-font-specification:Myriad Pro Bold"
           id="path3619"
           inkscape:connector-curvature="0" />
        <path
           d="m 1168.723,-75.0944 c 0.038,-0.1999 0.076,-0.48548 0.1142,-0.85674 0.038,-0.37125 0.059,-0.78864 0.062,-1.25217 0.028,-2.218 -0.555,-4.17899 -1.7486,-5.88298 -1.1936,-1.70395 -3.1649,-2.6017 -5.9137,-2.69325 -2.976,0.10986 -5.1698,1.09402 -6.5816,2.95248 -1.4118,1.85848 -2.1118,3.93224 -2.1001,6.22128 0.018,2.71742 0.8172,4.84829 2.3989,6.39263 1.5816,1.54433 3.8399,2.33078 6.7748,2.35934 1.1643,0 2.2715,-0.0879 3.3216,-0.26362 1.05,-0.17574 2.0166,-0.43935 2.8997,-0.79084 l -0.703,-3.62029 c -0.7139,0.2292 -1.4564,0.40348 -2.2275,0.52283 -0.7711,0.11937 -1.6102,0.17941 -2.5175,0.18014 -1.2829,0.002 -2.3813,-0.26581 -3.2952,-0.80402 -0.9138,-0.53821 -1.4323,-1.3598 -1.5553,-2.46479 z m -11.1069,-3.65544 c 0.059,-0.77545 0.3456,-1.53554 0.8611,-2.28026 0.5155,-0.74469 1.3298,-1.14451 2.4428,-1.19944 1.2024,0.0637 2.0137,0.48111 2.4341,1.25217 0.4203,0.77108 0.6165,1.51359 0.5887,2.22753 z"
           style="font-size:35.14893341px;font-style:normal;font-variant:normal;font-weight:bold;font-stretch:normal;line-height:125%;letter-spacing:-1.8804692px;word-spacing:0px;fill:url(#linearGradient3976);fill-opacity:1;stroke:none;font-family:Myriad Pro;-inkscape-font-specification:Myriad Pro Bold"
           id="path3621"
           inkscape:connector-curvature="0" />
        <path
           d="m 1185.3781,-75.0944 c 0.038,-0.1999 0.076,-0.48548 0.1142,-0.85674 0.038,-0.37125 0.059,-0.78864 0.062,-1.25217 0.028,-2.218 -0.555,-4.17899 -1.7486,-5.88298 -1.1936,-1.70395 -3.1649,-2.6017 -5.9137,-2.69325 -2.976,0.10986 -5.1698,1.09402 -6.5816,2.95248 -1.4118,1.85848 -2.1118,3.93224 -2.1001,6.22128 0.018,2.71742 0.8172,4.84829 2.3989,6.39263 1.5816,1.54433 3.8399,2.33078 6.7748,2.35934 1.1643,0 2.2715,-0.0879 3.3216,-0.26362 1.05,-0.17574 2.0166,-0.43935 2.8997,-0.79084 l -0.703,-3.62029 c -0.7139,0.2292 -1.4564,0.40348 -2.2275,0.52283 -0.7711,0.11937 -1.6102,0.17941 -2.5175,0.18014 -1.2829,0.002 -2.3813,-0.26581 -3.2952,-0.80402 -0.9138,-0.53821 -1.4323,-1.3598 -1.5553,-2.46479 z m -11.1069,-3.65544 c 0.059,-0.77545 0.3456,-1.53554 0.8611,-2.28026 0.5155,-0.74469 1.3298,-1.14451 2.4428,-1.19944 1.2024,0.0637 2.0137,0.48111 2.4341,1.25217 0.4203,0.77108 0.6165,1.51359 0.5887,2.22753 z"
           style="font-size:35.14893341px;font-style:normal;font-variant:normal;font-weight:bold;font-stretch:normal;line-height:125%;letter-spacing:-1.8804692px;word-spacing:0px;fill:url(#linearGradient3978);fill-opacity:1;stroke:none;font-family:Myriad Pro;-inkscape-font-specification:Myriad Pro Bold"
           id="path3623"
           inkscape:connector-curvature="0" />
        <path
           d="m 1186.849,-68.2053 5.3426,0 0,-8.71682 c 0,-0.21235 0.01,-0.42031 0.026,-0.62389 0.018,-0.20355 0.044,-0.39394 0.079,-0.57116 0.1831,-0.8355 0.5902,-1.49307 1.2214,-1.97271 0.6312,-0.47961 1.4426,-0.72419 2.4341,-0.73372 0.2972,0.001 0.5638,0.0161 0.7996,0.0439 0.2357,0.0278 0.4495,0.0601 0.6414,0.0967 l 0,-5.02623 c -0.1853,-0.0337 -0.3596,-0.0542 -0.5228,-0.0615 -0.1633,-0.007 -0.3639,-0.0102 -0.6019,-0.009 -0.8612,-0.008 -1.7311,0.27169 -2.6098,0.83917 -0.8787,0.56752 -1.5553,1.47113 -2.0298,2.71083 l -0.1406,0 -0.1757,-3.16336 -4.6045,0 c 0.037,0.72349 0.069,1.53483 0.097,2.43403 0.028,0.89923 0.043,1.97418 0.044,3.22487 z"
           style="font-size:35.14893341px;font-style:normal;font-variant:normal;font-weight:bold;font-stretch:normal;line-height:125%;letter-spacing:-1.8804692px;word-spacing:0px;fill:url(#linearGradient3980);fill-opacity:1;stroke:none;font-family:Myriad Pro;-inkscape-font-specification:Myriad Pro Bold"
           id="path3625"
           inkscape:connector-curvature="0" />
        <path
           d="m 1202.7489,-68.2053 0.2109,-2.39009 0.07,0 c 0.6283,1.00759 1.3927,1.7252 2.2934,2.15284 0.9007,0.42764 1.8585,0.6356 2.8734,0.62389 2.0503,0 3.8546,-0.77327 5.4129,-2.3198 1.5582,-1.54653 2.3783,-3.86633 2.4604,-6.9594 -0.024,-2.66835 -0.6884,-4.77432 -1.9947,-6.31794 -1.3064,-1.54359 -3.0081,-2.3315 -5.1053,-2.36374 -1.1987,0.009 -2.2371,0.22849 -3.1151,0.65904 -0.8779,0.43058 -1.5736,1.01932 -2.0869,1.76621 l -0.07,0 0,-9.80643 -5.3426,0 0,19.82375 c -10e-4,0.98928 -0.016,1.94561 -0.044,2.86899 -0.028,0.92338 -0.06,1.67761 -0.097,2.26268 z m 0.949,-9.84157 c 0,-0.34562 0.035,-0.67367 0.1055,-0.98416 0.194,-0.78643 0.5792,-1.41911 1.1555,-1.89802 0.5762,-0.47888 1.2338,-0.72492 1.9727,-0.73811 1.2455,0.0322 2.1726,0.49502 2.7811,1.38836 0.6085,0.89337 0.9116,2.02398 0.9095,3.39183 -0.011,1.55533 -0.3406,2.75037 -0.9886,3.58514 -0.6481,0.83478 -1.5487,1.25657 -2.702,1.26535 -0.785,-0.0154 -1.4558,-0.25702 -2.0123,-0.72494 -0.5565,-0.46791 -0.9285,-1.06982 -1.1159,-1.80575 -0.07,-0.28118 -0.1055,-0.59752 -0.1055,-0.94901 z"
           style="font-size:35.14893341px;font-style:normal;font-variant:normal;font-weight:bold;font-stretch:normal;line-height:125%;letter-spacing:-1.8804692px;word-spacing:0px;fill:url(#linearGradient3982);fill-opacity:1;stroke:none;font-family:Myriad Pro;-inkscape-font-specification:Myriad Pro Bold"
           id="path3627"
           inkscape:connector-curvature="0" />
        <path
           d="m 1233.791,-85.3929 5.694,8.43563 -5.8346,8.75197 5.8698,0 1.6168,-3.09306 c 0.2124,-0.42032 0.4291,-0.84503 0.6503,-1.27414 0.2211,-0.4291 0.4378,-0.87138 0.6502,-1.32685 l 0.1055,0 c 0.2094,0.44009 0.4232,0.87798 0.6414,1.31367 0.2182,0.4357 0.4496,0.86481 0.6942,1.28732 l 1.7223,3.09306 6.0455,0 -5.7292,-8.99801 5.6589,-8.18959 -5.7995,0 -1.5114,2.77673 c -0.227,0.42179 -0.4496,0.85236 -0.6678,1.2917 -0.2182,0.43937 -0.4408,0.88751 -0.6678,1.34443 l -0.07,0 c -0.2278,-0.40566 -0.4577,-0.82451 -0.6898,-1.25656 -0.2321,-0.43202 -0.4709,-0.86844 -0.7162,-1.30928 l -1.6871,-2.84702 z"
           style="font-size:35.14893341px;font-style:normal;font-variant:normal;font-weight:bold;font-stretch:normal;line-height:125%;letter-spacing:-1.8804692px;word-spacing:0px;fill:url(#linearGradient3984);fill-opacity:1;stroke:none;font-family:Myriad Pro;-inkscape-font-specification:Myriad Pro Bold"
           id="path3629"
           inkscape:connector-curvature="0" />
        <path
           inkscape:connector-curvature="0"
           id="path3631"
           d="m 1231.5807,-85.3509 -9.9714,-0.0971 -4.8975,8.48278 5.0738,8.57986 9.9674,0.10416 4.8975,-8.48277 -5.0698,-8.58694 z"
           style="fill:url(#linearGradient3986);fill-opacity:1;stroke:none" />
        <path
           inkscape:export-ydpi="48"
           inkscape:export-xdpi="48"
           inkscape:export-filename="D:\nWorks\Dropbox\99\order\Lightning\14.peercoin\logo#5.png"
           style="font-size:146.43688965px;font-style:normal;font-variant:normal;font-weight:normal;font-stretch:normal;line-height:125%;letter-spacing:0px;word-spacing:0px;opacity:0.9;fill:#ffffff;fill-opacity:1;stroke:none;font-family:Sans;-inkscape-font-specification:Sans"
           d="m 1221.6839,-82.67955 c 8.6046,0.30829 11.9229,5.31126 10.2571,9.77618 -0.472,1.24244 -0.9734,1.92241 -2.0282,2.63093 0.043,-0.17904 0.087,-0.35903 0.1207,-0.54234 0.624,-3.4834 -0.5583,-7.6747 -6.3408,-9.98998 4.6006,2.65259 6.4573,7.37194 4.3118,10.41851 -3.6518,0.55607 -6.3206,-2.46514 -6.3206,-5.94577 z"
           id="path3633"
           inkscape:connector-curvature="0" />
        <path
           style="opacity:0.5;fill:#000000;fill-opacity:1;stroke:none"
           d="m 1236.6505,-76.76396 -4.8962,8.48041 -9.9687,-0.1018 4.8962,-8.48042 z"
           id="path3635"
           inkscape:connector-curvature="0" />
      </g>
      <g
         transform="matrix(4.8675449,0,0,4.8675449,-5248.8214,1209.4713)"
         id="g3639">
        <path
           style="fill:url(#linearGradient3988);fill-opacity:1;stroke:none"
           d="m 1197.7509,-153.03587 -34.9765,-0.3406 -17.1789,29.75493 17.7973,30.095459 34.9625,0.365361 17.1789,-29.75489 -17.7833,-30.12029 z"
           id="path3641"
           inkscape:connector-curvature="0" />
        <path
           inkscape:connector-curvature="0"
           id="path3643"
           d="m 1163.0361,-143.66561 c 30.1822,1.08138 41.8218,18.63023 35.9787,34.29177 -1.6557,4.35809 -3.4144,6.74321 -7.1143,9.22847 0.1508,-0.62801 0.3051,-1.25936 0.4233,-1.90235 2.1888,-12.21868 -1.9583,-26.92044 -22.2415,-35.04172 16.1375,9.30446 22.6502,25.85845 15.1244,36.54486 -12.8093,1.950524 -22.1706,-8.64693 -22.1706,-20.85589 z"
           style="font-size:146.43688965px;font-style:normal;font-variant:normal;font-weight:normal;font-stretch:normal;line-height:125%;letter-spacing:0px;word-spacing:0px;opacity:0.9;fill:#ffffff;fill-opacity:1;stroke:none;font-family:Sans;-inkscape-font-specification:Sans"
           inkscape:export-filename="D:\nWorks\Dropbox\99\order\Lightning\14.peercoin\logo#5.png"
           inkscape:export-xdpi="48"
           inkscape:export-ydpi="48" />
        <path
           inkscape:connector-curvature="0"
           id="path3645"
           d="m 1215.5342,-122.91558 -17.1743,29.746617 -34.9671,-0.357083 17.1743,-29.746654 z"
           style="opacity:0.5;fill:#000000;fill-opacity:1;stroke:none" />
      </g>
      <path
         inkscape:connector-curvature="0"
         id="path3699"
         d="m 615.35849,805.79172 21.87503,37.01069 42.98981,0.43897 -21.86341,-37.03096 -43.00143,-0.41859 z"
         style="opacity:0.5;fill:#ffffff;stroke:none" />
      <path
         inkscape:connector-curvature="0"
         id="path3703"
         d="m 411.03521,462.90447 86.6068,146.53147 170.20393,1.73811 -86.56104,-146.61172 z"
         style="opacity:0.5;fill:#ffffff;stroke:none" />
    </g>
  </g>
</svg>
