<svg xmlns="http://www.w3.org/2000/svg" width="44" height="45.09" viewBox="0 0 44 45.09">
  <metadata><?xpacket begin="﻿" id="W5M0MpCehiHzreSzNTczkc9d"?>
<x:xmpmeta xmlns:x="adobe:ns:meta/" x:xmptk="Adobe XMP Core 5.6-c138 79.159824, 2016/09/14-01:09:01        ">
   <rdf:RDF xmlns:rdf="http://www.w3.org/1999/02/22-rdf-syntax-ns#">
      <rdf:Description rdf:about=""/>
   </rdf:RDF>
</x:xmpmeta>
                                                                                                    
                                                                                                    
                                                                                                    
                                                                                                    
                                                                                                    
                                                                                                    
                                                                                                    
                                                                                                    
                                                                                                    
                                                                                                    
                                                                                                    
                                                                                                    
                                                                                                    
                                                                                                    
                                                                                                    
                                                                                                    
                                                                                                    
                                                                                                    
                                                                                                    
                                                                                                    
                           
<?xpacket end="w"?></metadata>
<defs>
    <style>
      .cls-1 {
        fill: #29498b;
        fill-rule: evenodd;
      }
    </style>
  </defs>
  <path class="cls-1" d="M925,2668H887a2.721,2.721,0,0,0-3,3v39a2.763,2.763,0,0,0,2.966,3.09h38.065A2.765,2.765,0,0,0,928,2710v-39A2.721,2.721,0,0,0,925,2668Zm-17.866,15a5.988,5.988,0,0,0-3.059-1.15,3.694,3.694,0,0,0-2.461.71c-0.466.46-.614,1.16-0.614,2.44v2h6l-2,5h-4v18h-7v-18h-3v-5h3v-2c0-2.12-.029-3.34.472-4.39a6.333,6.333,0,0,1,2.812-2.86,13.1,13.1,0,0,1,5.388-.98c2.106,0,3.756.7,5.774,1.27Z" transform="translate(-884 -2668)"/>
</svg>
