<svg xmlns="http://www.w3.org/2000/svg" width="53" height="44" viewBox="0 0 53 44">
  <metadata><?xpacket begin="﻿" id="W5M0MpCehiHzreSzNTczkc9d"?>
<x:xmpmeta xmlns:x="adobe:ns:meta/" x:xmptk="Adobe XMP Core 5.6-c138 79.159824, 2016/09/14-01:09:01        ">
   <rdf:RDF xmlns:rdf="http://www.w3.org/1999/02/22-rdf-syntax-ns#">
      <rdf:Description rdf:about=""/>
   </rdf:RDF>
</x:xmpmeta>
                                                                                                    
                                                                                                    
                                                                                                    
                                                                                                    
                                                                                                    
                                                                                                    
                                                                                                    
                                                                                                    
                                                                                                    
                                                                                                    
                                                                                                    
                                                                                                    
                                                                                                    
                                                                                                    
                                                                                                    
                                                                                                    
                                                                                                    
                                                                                                    
                                                                                                    
                                                                                                    
                           
<?xpacket end="w"?></metadata>
<defs>
    <style>
      .cls-1 {
        fill: #f14f00;
        fill-rule: evenodd;
      }
    </style>
  </defs>
  <path class="cls-1" d="M1819.78,2695.39a3.585,3.585,0,1,0-3.58,3.63A3.6,3.6,0,0,0,1819.78,2695.39Zm13.04-3.63a3.625,3.625,0,1,0,3.58,3.62A3.606,3.606,0,0,0,1832.82,2691.76Zm-1.26,11.37c-1.35,1.36-3.65,2.02-7.03,2.02-0.01,0-.02.01-0.03,0.01s-0.02-.01-0.03-0.01c-3.38,0-5.68-.66-7.03-2.02a1.527,1.527,0,0,0-2.18,0,1.569,1.569,0,0,0,0,2.2c1.96,1.98,4.97,2.94,9.21,2.94h0.06c4.24,0,7.25-.96,9.2-2.94a1.551,1.551,0,0,0,0-2.2A1.515,1.515,0,0,0,1831.56,2703.13Zm19.44-11.95a5.239,5.239,0,0,0-5.21-5.27,5.1,5.1,0,0,0-4.04,2,29.555,29.555,0,0,0-15.66-5.01l2.99-9.48,8.91,2.12a4.141,4.141,0,1,0,.7-3.04l-10.3-2.46a1.546,1.546,0,0,0-1.82,1.05l-3.67,11.81a29.614,29.614,0,0,0-15.72,4.9,5.125,5.125,0,0,0-3.98-1.89,5.263,5.263,0,0,0-2.08,10.07,10.609,10.609,0,0,0-.31,2.45c0,8.6,10.55,15.57,23.58,15.57s23.58-6.97,23.58-15.57a10.309,10.309,0,0,0-.3-2.36A5.254,5.254,0,0,0,1851,2691.18Zm-26.61,19.7c-11.12,0-20.5-5.7-20.5-12.45s9.38-12.46,20.5-12.46,20.5,5.7,20.5,12.46S1835.5,2710.88,1824.39,2710.88Z" transform="translate(-1798 -2670)"/>
</svg>
