<svg xmlns="http://www.w3.org/2000/svg" width="45" height="31.37" viewBox="0 0 45 31.37">
  <metadata><?xpacket begin="﻿" id="W5M0MpCehiHzreSzNTczkc9d"?>
<x:xmpmeta xmlns:x="adobe:ns:meta/" x:xmptk="Adobe XMP Core 5.6-c138 79.159824, 2016/09/14-01:09:01        ">
   <rdf:RDF xmlns:rdf="http://www.w3.org/1999/02/22-rdf-syntax-ns#">
      <rdf:Description rdf:about=""/>
   </rdf:RDF>
</x:xmpmeta>
                                                                                                    
                                                                                                    
                                                                                                    
                                                                                                    
                                                                                                    
                                                                                                    
                                                                                                    
                                                                                                    
                                                                                                    
                                                                                                    
                                                                                                    
                                                                                                    
                                                                                                    
                                                                                                    
                                                                                                    
                                                                                                    
                                                                                                    
                                                                                                    
                                                                                                    
                                                                                                    
                           
<?xpacket end="w"?></metadata>
<defs>
    <style>
      .cls-1 {
        fill: #3bb3e0;
        fill-rule: evenodd;
      }
    </style>
  </defs>
  <path class="cls-1" d="M1354.5,2698.65s10.04,1.76,14.97-2.9c0.09-.44-0.17-0.52-1.55-0.52s-1.99-1.23-.44-3.08c0.87-1.14-.26-1.23-1.12-1.14s-4.24-1.14-4.24-3.52c1.47-.17,2.94-0.7,1.3-1.75s-3.38-2.55-3.29-4.57a1.334,1.334,0,0,0,1.38-.62s-3.11-3.16-2.42-5.8c14.8,7.12,15.4,7.65,15.4,7.65l1.56,0.26s1.38-7.55,10.3-7.38c1.9,0.09,5.88.27,9.34,8.88l1.82,0.61,1.64,0.44-2.33,1.32,2.68,1.58-4.24.7s-4.85,17.4-24.06,17.31C1366.88,2705.77,1361.17,2704.45,1354.5,2698.65Z" transform="translate(-1354.5 -2674.75)"/>
</svg>
