<svg id="LOGO" xmlns="http://www.w3.org/2000/svg" width="254" height="64" viewBox="0 0 254 64">
  <metadata><?xpacket begin="﻿" id="W5M0MpCehiHzreSzNTczkc9d"?>
<x:xmpmeta xmlns:x="adobe:ns:meta/" x:xmptk="Adobe XMP Core 5.6-c138 79.159824, 2016/09/14-01:09:01        ">
   <rdf:RDF xmlns:rdf="http://www.w3.org/1999/02/22-rdf-syntax-ns#">
      <rdf:Description rdf:about=""/>
   </rdf:RDF>
</x:xmpmeta>
                                                                                                    
                                                                                                    
                                                                                                    
                                                                                                    
                                                                                                    
                                                                                                    
                                                                                                    
                                                                                                    
                                                                                                    
                                                                                                    
                                                                                                    
                                                                                                    
                                                                                                    
                                                                                                    
                                                                                                    
                                                                                                    
                                                                                                    
                                                                                                    
                                                                                                    
                                                                                                    
                           
<?xpacket end="w"?></metadata>
<defs>
    <style>
      .cls-1 {
        fill: #333;
      }

      .cls-1, .cls-2, .cls-3, .cls-4, .cls-5 {
        fill-rule: evenodd;
      }

      .cls-2 {
        fill: #3cb054;
      }

      .cls-3, .cls-4 {
        fill: #fff;
      }

      .cls-3 {
        opacity: 0.9;
      }

      .cls-4 {
        opacity: 0.4;
      }

      .cls-5 {
        opacity: 0.2;
      }
    </style>
  </defs>
  <path id="Layer_3" data-name="Layer 3" class="cls-1" d="M275.717,70.895a12.656,12.656,0,0,0-10.442,4.835V71.764H258V119h7.275V101.119a12.655,12.655,0,0,0,10.442,4.835c9.329,0,16.673-7.339,16.673-17.53S285.046,70.895,275.717,70.895Zm-0.87,6.852c6.265,0,10.06,4.835,10.06,10.677S281.112,99.1,274.847,99.1c-5.987,0-10.059-4.591-10.059-10.678S268.86,77.747,274.847,77.747Zm39.368-6.852c-9.816,0-16.6,7.1-16.6,17.529,0,10.574,7.031,17.53,17.055,17.53a20.1,20.1,0,0,0,13.715-4.7l-3.62-5.182a15.806,15.806,0,0,1-9.642,3.513c-4.7,0-8.98-2.5-9.92-8.486h24.644a22.521,22.521,0,0,0,.139-2.713C329.983,77.99,323.509,70.895,314.215,70.895Zm-0.139,6.469c4.629,0,7.658,3.026,8.458,8.209h-17.3C305.965,80.7,308.889,77.364,314.076,77.364Zm37.336-6.469c-9.815,0-16.6,7.1-16.6,17.529,0,10.574,7.031,17.53,17.056,17.53a20.1,20.1,0,0,0,13.714-4.7l-3.62-5.182a15.8,15.8,0,0,1-9.642,3.513c-4.7,0-8.98-2.5-9.92-8.486h24.644a22.318,22.318,0,0,0,.139-2.713C367.18,77.99,360.706,70.895,351.412,70.895Zm-0.139,6.469c4.63,0,7.658,3.026,8.459,8.209h-17.3C343.163,80.7,346.087,77.364,351.273,77.364Zm40.017-6.469c-4.072,0-7.449,1.426-9.676,4.626V71.764h-7.206v33.32h7.275V86.755c0-5.7,3.307-8.939,7.936-8.939a12.993,12.993,0,0,1,5.535,1.217l1.74-7.2A14.563,14.563,0,0,0,391.29,70.895Zm28.948,0A12.655,12.655,0,0,0,409.8,75.729V55h-7.275v50.084H409.8v-3.965a12.654,12.654,0,0,0,10.442,4.835c9.329,0,16.673-7.339,16.673-17.53S429.567,70.895,420.238,70.895Zm-0.87,6.852c6.265,0,10.059,4.835,10.059,10.677S425.633,99.1,419.368,99.1c-5.987,0-10.06-4.591-10.06-10.678S413.381,77.747,419.368,77.747Zm80.066,10.26,12.322-16.243h-8.6l-8.18,11.13-8.11-11.13h-8.946L490.28,88.076l-12.566,17.008h8.528L494.6,93.5l8.458,11.582H512Z" transform="translate(-258 -55)"/>
  <path id="Layer_4" data-name="Layer 4" class="cls-2" d="M439.714,88.4l10.119-17.513h20.238L480.19,88.4l-10.119,17.513H449.833Z" transform="translate(-258 -55)"/>
  <path id="path3633" class="cls-3" d="M449.807,76.606c17.468,0.625,24.2,10.774,20.823,19.831a9.77,9.77,0,0,1-4.118,5.337c0.088-.363.177-0.728,0.245-1.1,1.267-7.066-1.133-15.568-12.872-20.264,9.34,5.381,13.109,14.953,8.753,21.133-7.413,1.128-12.831-5-12.831-12.061V76.606Z" transform="translate(-258 -55)"/>
  <path id="Layer_5" data-name="Layer 5" class="cls-4" d="M449.837,70.888h20.238L480.19,88.4H459.948L449.833,70.894Z" transform="translate(-258 -55)"/>
  <path id="Layer_6" data-name="Layer 6" class="cls-5" d="M449.837,105.914h20.238L480.19,88.4H459.948l-10.115,17.507Z" transform="translate(-258 -55)"/>
</svg>
